<svg id="bold" enable-background="new 0 0 32 32" height="512" viewBox="0 0 32 32" width="512" xmlns="http://www.w3.org/2000/svg"><path d="m26 32h-20c-3.314 0-6-2.686-6-6v-20c0-3.314 2.686-6 6-6h20c3.314 0 6 2.686 6 6v20c0 3.314-2.686 6-6 6z" fill="#e3f8fa"/><g fill="#26c6da"><path d="m22 24h-10c-1.103 0-2-.897-2-2v-3.333c0-.368.298-.667.667-.667.368 0 .667.299.667.667v3.333c0 .368.299.667.667.667h10c.368 0 .667-.299.667-.667v-10c0-.368-.299-.667-.667-.667h-5.333c-.368 0-.667-.299-.667-.667s.297-.666.666-.666h5.333c1.103 0 2 .897 2 2v10c0 1.103-.897 2-2 2z"/><path d="m20.667 14.667c-.735 0-1.333-.598-1.333-1.333s.598-1.334 1.333-1.334 1.333.598 1.333 1.333-.598 1.334-1.333 1.334z"/><path d="m16.667 22c-.735 0-1.333-.598-1.333-1.333s.598-1.333 1.333-1.333 1.333.597 1.333 1.333c0 .735-.598 1.333-1.333 1.333z"/><path d="m15.424 20.597-1.02-.858c-.282-.237-.318-.658-.081-.939.238-.281.658-.318.939-.081l1.02.858c.282.237.318.658.081.939-.236.281-.656.318-.939.081zm-2.55-2.146-1.02-.858c-.282-.237-.318-.658-.081-.939s.658-.318.939-.081l1.02.858c.282.237.318.658.081.939s-.657.318-.939.081z"/><path d="m17.618 18.876c-.322-.18-.437-.586-.257-.907l.65-1.164c.18-.321.585-.438.907-.257.322.18.437.586.257.907l-.65 1.164c-.18.322-.587.436-.907.257zm1.627-2.91c-.322-.18-.437-.586-.257-.907l.65-1.164c.18-.321.585-.438.907-.257.322.18.437.586.257.907l-.65 1.164c-.181.322-.588.436-.907.257z"/></g><path d="m11.333 8c-1.838 0-3.333 1.514-3.333 3.375 0 2.568 2.885 5.066 3.008 5.172.186.16.464.16.65 0 .123-.105 3.008-2.603 3.008-5.172.001-1.861-1.495-3.375-3.333-3.375zm0 4.667c-.735 0-1.333-.598-1.333-1.333s.598-1.334 1.333-1.334 1.333.598 1.333 1.333-.598 1.334-1.333 1.334z" fill="#8ce1eb"/></svg>