<svg height="512" viewBox="0 0 74 74" width="512" xmlns="http://www.w3.org/2000/svg"><g id="Numbers"><text fill="rgb(0,0,0)" font-family="ArialMT, Arial" font-size="18" transform="translate(31.994 -514.544)">9<tspan x="-5.005" y="124">19</tspan><tspan x="-5.005" y="248">29</tspan><tspan x="-5.005" y="372">39</tspan><tspan x="-5.005" y="496">49</tspan><tspan x="-5.005" y="620">59</tspan><tspan x="-5.005" y="744">69</tspan><tspan x="-5.005" y="868">79</tspan><tspan x="-5.005" y="992">89</tspan><tspan x="-5.005" y="1116">99</tspan><tspan x="-10.011" y="1240">109</tspan><tspan letter-spacing="-.074em" x="-9.343" y="1364">1</tspan><tspan x="-.668" y="1364">19</tspan><tspan x="-10.011" y="1488">129</tspan><tspan x="-10.011" y="1612">139</tspan><tspan x="-10.011" y="1736">149</tspan><tspan x="-10.011" y="1860">159</tspan><tspan x="-10.011" y="1984">169</tspan><tspan x="-10.011" y="2108">179</tspan><tspan x="-10.011" y="2232">189</tspan><tspan x="-10.011" y="2356">199</tspan><tspan x="-10.011" y="2480">209</tspan><tspan x="-10.011" y="2604">219</tspan><tspan x="-10.011" y="2728">229</tspan><tspan x="-10.011" y="2852">239</tspan><tspan x="-10.011" y="2976">249</tspan><tspan x="-10.011" y="3100">259</tspan><tspan x="-10.011" y="3224">269</tspan><tspan x="-10.011" y="3348">279</tspan><tspan x="-10.011" y="3472">289</tspan><tspan x="-10.011" y="3596">299</tspan></text></g><g id="_2_PT" data-name="2 PT"><path d="m37 72a1 1 0 0 1 -.761-.352c-.949-1.113-23.239-27.484-23.375-45.504a23.7 23.7 0 0 1 6.944-16.987 24.163 24.163 0 0 1 41.328 16.979c0 18.027-22.422 44.4-23.376 45.515a1 1 0 0 1 -.76.349zm0-68a22.068 22.068 0 0 0 -15.772 6.566 21.719 21.719 0 0 0 -6.363 15.563c.116 15.481 18.179 38.455 22.135 43.306 3.977-4.846 22.134-27.826 22.134-43.3a22.161 22.161 0 0 0 -22.134-22.135z"/><path d="m37 41a15 15 0 1 1 15-15 15.017 15.017 0 0 1 -15 15zm0-28a13 13 0 1 0 13 13 13.015 13.015 0 0 0 -13-13z"/></g></svg>