<svg id="bold" enable-background="new 0 0 32 32" height="512" viewBox="0 0 32 32" width="512" xmlns="http://www.w3.org/2000/svg"><path d="m26 32h-20c-3.314 0-6-2.686-6-6v-20c0-3.314 2.686-6 6-6h20c3.314 0 6 2.686 6 6v20c0 3.314-2.686 6-6 6z" fill="#e3f8fa"/><path d="m23.805 22.862-4.55-4.55c.881-1.088 1.412-2.472 1.412-3.978 0-3.492-2.841-6.333-6.333-6.333s-6.334 2.84-6.334 6.332 2.841 6.333 6.333 6.333c1.507 0 2.89-.531 3.979-1.412l4.55 4.55c.26.26.682.26.943 0 .26-.26.26-.682 0-.942zm-14.472-8.529c0-2.757 2.243-5 5-5s5 2.243 5 5-2.243 5-5 5-5-2.243-5-5z" fill="#26c6da"/><g fill="#8ce1eb"><circle cx="14.333" cy="12.667" r="1.333"/><path d="m15.167 14.667h-1.667c-1.011 0-1.833.822-1.833 1.833v.333c0 .276.224.5.5.5h4.333c.276 0 .5-.224.5-.5v-.333c0-1.011-.822-1.833-1.833-1.833z"/></g></svg>